<svg xmlns="http://www.w3.org/2000/svg" viewBox="0 0 20 20"><g id="Layer_2" data-name="Layer 2"><g id="_8-Bit_Social_Icons_-_Without_Background" data-name="8-Bit Social Icons - Without Background"><rect y="16" width="4" height="4"/><polygon points="10 12 8 12 8 10 6 10 6 8 4 8 2 8 0 8 0 12 2 12 4 12 4 14 6 14 6 16 8 16 8 18 8 20 12 20 12 18 12 16 12 14 10 14 10 12"/><polygon points="18 12 18 10 16 10 16 8 14 8 14 6 12 6 12 4 10 4 10 2 8 2 8 0 4 0 0 0 0 4 4 4 6 4 6 6 8 6 8 8 10 8 10 10 12 10 12 12 14 12 14 14 16 14 16 16 16 20 20 20 20 16 20 12 18 12"/></g></g></svg>